HIERARCHY
ROOT joint_Root
{
	OFFSET 0.0 0.0 0.0
	CHANNELS 6 Xposition Yposition Zposition Zrotation Xrotation Yrotation 
	JOINT Hips
	{
		OFFSET 4.5925 91.4895 -427.239
		CHANNELS 6 Xposition Yposition Zposition Zrotation Xrotation Yrotation 
		JOINT Spine
		{
			OFFSET 15.7357 0.0 0.0
			CHANNELS 6 Xposition Yposition Zposition Zrotation Xrotation Yrotation 
			JOINT Chest
			{
				OFFSET 8.98455 -0.406207 0.0
				CHANNELS 6 Xposition Yposition Zposition Zrotation Xrotation Yrotation 
				JOINT Neck
				{
					OFFSET 16.3773 0.0 0.0
					CHANNELS 6 Xposition Yposition Zposition Zrotation Xrotation Yrotation 
					JOINT Head
					{
						OFFSET 6.45672 0.0 0.0
						CHANNELS 6 Xposition Yposition Zposition Zrotation Xrotation Yrotation 
						End Site
						{
							OFFSET 0.0 0.0 0.0
						}
					}
				}
				JOINT Shoulder_L
				{
					OFFSET 12.9942 -0.242716 4.98039
					CHANNELS 6 Xposition Yposition Zposition Zrotation Xrotation Yrotation 
					JOINT UpperArm_L
					{
						OFFSET 5.34809 0.0 0.0
						CHANNELS 6 Xposition Yposition Zposition Zrotation Xrotation Yrotation 
						JOINT LowerArm_L
						{
							OFFSET 24.3286 1.87007e-05 0.0
							CHANNELS 6 Xposition Yposition Zposition Zrotation Xrotation Yrotation 
							JOINT Hand_L
							{
								OFFSET 22.2916 0.0 0.0
								CHANNELS 6 Xposition Yposition Zposition Zrotation Xrotation Yrotation 
								End Site
								{
									OFFSET 0.0 0.0 0.0
								}
							}
						}
					}
				}
				JOINT Shoulder_R
				{
					OFFSET 12.9945 -0.242716 -4.98039
					CHANNELS 6 Xposition Yposition Zposition Zrotation Xrotation Yrotation 
					JOINT UpperArm_R
					{
						OFFSET -5.34813 0.0 0.0
						CHANNELS 6 Xposition Yposition Zposition Zrotation Xrotation Yrotation 
						JOINT LowerArm_R
						{
							OFFSET -24.3289 0.000322201 0.0
							CHANNELS 6 Xposition Yposition Zposition Zrotation Xrotation Yrotation 
							JOINT Hand_R
							{
								OFFSET -22.2915 -0.000108084 0.0
								CHANNELS 6 Xposition Yposition Zposition Zrotation Xrotation Yrotation 
								End Site
								{
									OFFSET 0.0 0.0 0.0
								}
							}
						}
					}
				}
			}
		}
		JOINT UpperLeg_L
		{
			OFFSET -2.19248 -6.46944 0.0
			CHANNELS 6 Xposition Yposition Zposition Zrotation Xrotation Yrotation 
			JOINT LowerLeg_L
			{
				OFFSET 39.0811 0.0 -1.23785e-05
				CHANNELS 6 Xposition Yposition Zposition Zrotation Xrotation Yrotation 
				JOINT Foot_L
				{
					OFFSET 40.9854 0.0 -1.26872e-05
					CHANNELS 6 Xposition Yposition Zposition Zrotation Xrotation Yrotation 
					JOINT Toes_L
					{
						OFFSET 11.7543 0.0 0.0
						CHANNELS 6 Xposition Yposition Zposition Zrotation Xrotation Yrotation 
						End Site
						{
							OFFSET 0.0 0.0 0.0
						}
					}
				}
			}
		}
		JOINT UpperLeg_R
		{
			OFFSET -2.19251 6.46944 0.0
			CHANNELS 6 Xposition Yposition Zposition Zrotation Xrotation Yrotation 
			JOINT LowerLeg_R
			{
				OFFSET -39.0811 -0.00228153 -0.0401928
				CHANNELS 6 Xposition Yposition Zposition Zrotation Xrotation Yrotation 
				JOINT Foot_R
				{
					OFFSET -40.9854 0.0 0.0
					CHANNELS 6 Xposition Yposition Zposition Zrotation Xrotation Yrotation 
					JOINT Toes_R
					{
						OFFSET -11.7543 0.0 0.0
						CHANNELS 6 Xposition Yposition Zposition Zrotation Xrotation Yrotation 
						End Site
						{
							OFFSET 0.0 0.0 0.0
						}
					}
				}
			}
		}
	}
}
MOTION
Frames:	4
Frame Time:	0.0333333
0.000000 0.000000 0.000000 0.000000 0.000000 -0.000000 0.386378 80.964600 -5.435520 88.993100 -4.503600 10.646400 15.735700 0.000005 -0.000001 89.188100 79.634100 -88.149200 8.984550 -0.406207 -0.000000 12.966900 -0.243765 2.105550 16.377300 -0.000001 -0.000001 -3.158680 -3.013700 2.444700 6.456720 -0.000001 -0.000000 -4.020450 -3.439590 8.370530 12.994200 -0.242716 4.980390 -90.927000 3.314720 -74.366600 5.348090 -0.000007 -0.000001 -70.785400 3.930930 -14.499400 24.328600 0.000019 0.000005 5.063010 13.639300 -20.594800 22.291600 -0.000001 0.000005 9.494170 5.340880 -1.100080 12.994500 -0.242716 -4.980390 88.782100 8.482260 -81.798300 -5.348130 -0.000001 -0.000004 -61.047000 25.219300 -11.681500 -24.328900 0.000322 -0.000009 -4.422330 -7.827110 -29.577700 -22.291500 -0.000108 -0.000004 20.976600 5.519680 -7.359280 -2.192480 -6.469440 -0.000000 -174.434000 -12.858900 -20.456600 39.081100 -0.000007 -0.000012 -0.656257 0.288091 66.300400 40.985400 -0.000006 -0.000013 1.930440 4.113040 -84.959200 11.754300 -0.000000 0.000003 -0.000442 -0.003596 -16.709600 -2.192510 6.469440 -0.000001 176.512000 12.448800 159.552000 -39.081100 -0.002282 -0.040193 0.096405 -0.041347 66.087600 -40.985400 0.000008 0.000006 6.953180 6.235720 -85.162100 -11.754300 -0.000006 -0.000006 -0.480616 -0.589749 -16.584300
0.000000 0.000000 0.000000 0.000000 0.000000 -0.000000 1.269230 82.309700 -4.537340 90.213400 -5.912500 11.224800 15.735700 0.000005 -0.000001 89.476000 80.120400 -87.355500 8.984550 -0.406207 -0.000000 11.997800 -0.100928 4.250430 16.377300 -0.000001 -0.000001 -1.455660 -2.671110 2.758350 6.456720 -0.000001 -0.000000 -2.844540 -2.519650 5.976260 12.994200 -0.242716 4.980390 -90.730400 2.465280 -73.487800 5.348090 -0.000007 -0.000001 -64.788700 -2.735000 -16.101500 24.328600 0.000019 0.000005 4.878230 15.676300 -17.521900 22.291600 -0.000001 0.000005 9.781500 5.315700 -0.396227 12.994500 -0.242716 -4.980390 88.698200 8.134680 -80.875400 -5.348130 -0.000001 -0.000004 -61.134000 22.297600 -10.475000 -24.328900 0.000322 -0.000009 -3.897530 -8.151860 -25.660400 -22.291500 -0.000108 -0.000004 22.250300 5.485050 -5.949810 -2.192480 -6.469440 -0.000000 -176.002000 -14.069600 -16.956800 39.081100 -0.000007 -0.000012 -0.600446 0.316395 62.215100 40.985400 -0.000006 -0.000013 2.122900 3.381510 -83.907200 11.754300 -0.000000 0.000003 -0.000469 -0.003774 -16.715900 -2.192510 6.469440 -0.000001 174.469000 11.241900 162.232000 -39.081100 -0.002282 -0.040193 0.078415 -0.038913 62.649900 -40.985400 0.000008 0.000006 6.388300 7.374690 -83.993100 -11.754300 -0.000006 -0.000006 -0.438435 -0.537289 -16.580700
0.000000 0.000000 0.000000 0.000000 0.000000 -0.000000 2.182400 84.458800 -3.510820 91.607400 -7.068840 11.816700 15.735700 0.000005 -0.000001 90.424600 80.788700 -87.124200 8.984550 -0.406207 -0.000000 10.658300 0.218993 6.576680 16.377300 -0.000001 -0.000001 1.043120 -2.838300 2.695320 6.456720 -0.000001 -0.000000 -1.848090 -2.285630 3.157800 12.994200 -0.242716 4.980390 -90.235500 0.756298 -72.689900 5.348090 -0.000007 -0.000001 -59.088400 -17.805100 -20.326400 24.328600 0.000019 0.000005 3.035110 12.506500 -13.752200 22.291600 -0.000001 0.000005 11.663800 5.227090 2.008810 12.994500 -0.242716 -4.980390 88.639700 7.379750 -79.524500 -5.348130 -0.000001 -0.000004 -60.730600 19.068400 -7.913990 -24.328900 0.000322 -0.000009 -4.211080 -9.772380 -23.446600 -22.291500 -0.000108 -0.000004 21.841100 5.478420 -5.687150 -2.192480 -6.469440 -0.000000 -177.619000 -15.607800 -12.058300 39.081100 -0.000007 -0.000012 -0.499601 0.346154 55.284600 40.985400 -0.000006 -0.000013 2.535050 3.300730 -81.491300 11.754300 -0.000000 0.000003 -0.000392 -0.003250 -16.697500 -2.192510 6.469440 -0.000001 172.048000 10.890600 166.242000 -39.081100 -0.002282 -0.040193 0.060726 -0.037882 56.625600 -40.985400 0.000008 0.000006 5.832300 9.215000 -81.633500 -11.754300 -0.000006 -0.000006 -0.170564 -0.210253 -16.766400
0.000000 0.000000 0.000000 0.000000 0.000000 -0.000000 2.925940 86.663600 -2.669680 92.339800 -7.575480 11.315600 15.735700 0.000005 -0.000001 91.599500 81.896500 -87.125500 8.984550 -0.406207 -0.000000 8.431850 0.476839 8.904370 16.377300 -0.000001 -0.000001 3.550230 -3.145100 2.803280 6.456720 -0.000001 -0.000000 -0.453671 -2.783540 0.983889 12.994200 -0.242716 4.980390 -89.637400 -1.136950 -72.309100 5.348090 -0.000007 -0.000001 -51.587500 -32.863100 -27.460200 24.328600 0.000019 0.000005 1.626140 7.359150 -12.502500 22.291600 -0.000001 0.000005 14.069000 5.194930 2.849320 12.994500 -0.242716 -4.980390 88.602400 6.645360 -78.093600 -5.348130 -0.000001 -0.000004 -59.214800 16.554700 -4.562510 -24.328900 0.000322 -0.000009 -3.958070 -9.679830 -22.361500 -22.291500 -0.000108 -0.000004 19.530100 5.475010 -5.555300 -2.192480 -6.469440 -0.000000 -178.735000 -16.874800 -8.112070 39.081100 -0.000007 -0.000012 -0.361021 0.330445 47.532700 40.985400 -0.000006 -0.000013 2.941790 3.778540 -78.385900 11.754300 -0.000000 0.000003 -0.000252 -0.002252 -16.661900 -2.192510 6.469440 -0.000001 170.433000 11.884200 169.670000 -39.081100 -0.002282 -0.040193 0.048531 -0.038569 49.577600 -40.985400 0.000008 0.000006 5.300790 11.420000 -78.539500 -11.754300 -0.000006 -0.000006 -0.000729 -0.011484 -17.040300
